<?xml version="1.0" encoding="utf-8"?>
<!-- Generator: Adobe Illustrator 25.0.0, SVG Export Plug-In . SVG Version: 6.00 Build 0)  -->
<svg version="1.1" id="图层_1" xmlns="http://www.w3.org/2000/svg" xmlns:xlink="http://www.w3.org/1999/xlink" x="0px" y="0px"
	 viewBox="0 0 20 20" style="enable-background:new 0 0 20 20;" xml:space="preserve">
<g>
	<rect x="9.3" y="3" class="st0" width="1.4" height="1.8"/>
	<polygon class="st0" points="7.8,5.4 6.8,3.8 5.6,4.4 6.4,6 	"/>
	<polygon class="st0" points="5.3,7.1 3.8,6.1 3,7.3 4.7,8.3 	"/>
	<polygon class="st0" points="17,7.3 16.3,6.1 14.7,7.1 15.3,8.3 	"/>
	<polygon class="st0" points="14.4,4.3 13.2,3.6 12.2,5.3 13.6,6 	"/>
	<path class="st0" d="M16.6,15.6h-1.7v-5.2c0-2.6-2.1-4.6-4.8-4.6c-2.7,0-4.9,2-4.9,4.6v5.2H3.6c-0.1,0-0.2,0.1-0.2,0.2v1
		c0,0.1,0.1,0.2,0.2,0.2h13c0.1,0,0.2-0.1,0.2-0.2v-1C16.8,15.7,16.7,15.6,16.6,15.6z M9.6,13.2H9.4c-0.1,0-0.1,0-0.1,0
		c0,0,0,0,0-0.1l0.3-1.9H8V11l2.4-2.8h0.1c0.1,0,0.1,0,0.1,0.1l-0.3,1.9h1.6c0.1,0.1,0.1,0.2,0.1,0.2L9.6,13.2z"/>
</g>
</svg>
