<svg width="20" height="20" viewBox="0 0 20 20" fill="none" xmlns="http://www.w3.org/2000/svg">
<g id="ico_menu4_normal">
<path id="Vector" d="M16.5971 5.57743L10.0747 8.29205L3.53737 5.57743L10.0596 3L16.5971 5.57743ZM3.00002 6.70601L9.50753 9.48147V17C8.99014 16.7664 8.45298 16.5219 7.89559 16.2679C7.41811 16.0547 6.87816 15.8158 6.27621 15.5514C5.67419 15.2869 5.06986 15.0225 4.46278 14.758C4.24394 14.6564 4.04482 14.5218 3.8657 14.3542C3.68655 14.1866 3.5323 14.0033 3.40311 13.8053C3.2737 13.6068 3.17425 13.3958 3.10455 13.1722C3.03487 12.9485 3 12.7301 3 12.5165V6.70601H3.00002ZM17 6.70601V12.4861C17 12.7501 16.9503 13.0072 16.8508 13.256C16.7512 13.5053 16.6243 13.7388 16.4701 13.9573C16.316 14.1761 16.1443 14.3694 15.9552 14.537C15.7663 14.7051 15.5821 14.8344 15.4029 14.9261C14.8755 15.1497 14.3235 15.3833 13.7463 15.6273C13.1692 15.8714 12.6369 16.0951 12.1492 16.2987C11.5821 16.5423 11.025 16.7764 10.4776 17V9.48147L17 6.70601Z" fill="#3C506F"/>
</g>
</svg>
