<svg width="20" height="20" viewBox="0 0 20 20" fill="none" xmlns="http://www.w3.org/2000/svg">
<g id="ico_menu2_normal">
<path id="Vector" d="M10.2491 14.8442C10.244 14.7564 10.2406 14.6668 10.2406 14.579C10.2406 14.4911 10.244 14.4016 10.2491 14.3137C10.2695 13.9894 10.44 13.7005 10.7026 13.5248H4.18074V16.8766H11.0692C11.0385 16.6772 11.0658 16.4694 11.1579 16.2785L11.342 15.8933L10.9362 15.7497C10.5458 15.6129 10.2747 15.2564 10.2491 14.8442ZM17.9952 14.3661C17.9901 14.2918 17.9424 14.2276 17.8707 14.2022L17.3507 14.0198C16.9364 13.8745 16.7403 13.4049 16.9295 13.0112L17.1665 12.5179C17.1989 12.4503 17.187 12.3709 17.1376 12.3152C17.0421 12.2088 16.9415 12.1074 16.8341 12.0145C16.7778 11.9655 16.6976 11.9537 16.6294 11.9858L16.1316 12.2206C15.7343 12.4081 15.2603 12.2138 15.1136 11.8033L14.9278 11.2847C14.9022 11.2154 14.8374 11.1664 14.7624 11.1613C14.6908 11.1563 14.6192 11.1546 14.5476 11.1546C14.4759 11.1546 14.4043 11.1563 14.3327 11.1613C14.2577 11.1664 14.1929 11.2137 14.1673 11.2847L13.9832 11.7999C13.8365 12.2105 13.3625 12.4047 12.9653 12.2172L12.4674 11.9824C12.3992 11.9503 12.319 11.9621 12.2628 12.0111C12.1553 12.1057 12.053 12.2054 11.9593 12.3118C11.9098 12.3676 11.8979 12.447 11.9303 12.5145L12.1673 13.0078C12.3565 13.4015 12.1605 13.8711 11.7461 14.0164L11.2227 14.2022C11.1528 14.2276 11.1033 14.2918 11.0982 14.3661C11.0931 14.4371 11.0914 14.508 11.0914 14.579C11.0914 14.6499 11.0931 14.7209 11.0982 14.7918C11.1033 14.8662 11.1511 14.9304 11.2227 14.9557L11.7427 15.1382C12.1571 15.2835 12.3531 15.7531 12.1639 16.1467L11.9269 16.64C11.8945 16.7076 11.9064 16.787 11.9559 16.8428C12.0513 16.9492 12.1519 17.0506 12.2594 17.1435C12.3156 17.1925 12.3958 17.2043 12.464 17.1722L12.9618 16.9374C13.3591 16.7498 13.8331 16.9441 13.9798 17.3547L14.1639 17.8699C14.1895 17.9392 14.2543 17.9882 14.3293 17.9932C14.4009 17.9983 14.4725 18 14.5441 18C14.6158 18 14.6874 17.9983 14.759 17.9932C14.834 17.9882 14.8988 17.9409 14.9244 17.8699L15.1085 17.3547C15.2552 16.9441 15.7292 16.7498 16.1265 16.9374L16.6243 17.1722C16.6925 17.2043 16.7727 17.1925 16.8289 17.1435C16.9364 17.0489 17.0387 16.9492 17.1324 16.8428C17.1819 16.787 17.1938 16.7076 17.1614 16.64L16.9244 16.1467C16.7352 15.7531 16.9312 15.2835 17.3456 15.1382L17.8656 14.9557C17.9355 14.9304 17.985 14.8662 17.9901 14.7918C17.9952 14.7209 17.9969 14.6499 17.9969 14.579C18.002 14.508 18.0003 14.4371 17.9952 14.3661ZM14.5476 16.2768C13.6012 16.2768 12.834 15.5166 12.834 14.579C12.834 13.6414 13.6012 12.8811 14.5476 12.8811C15.4939 12.8811 16.2612 13.6414 16.2612 14.579C16.2612 15.5166 15.4939 16.2768 14.5476 16.2768ZM15.5979 4H4.00341V7.35176H15.5979V4ZM5.69484 6.26717C5.36576 6.26717 5.09806 6.00193 5.09806 5.67588C5.09806 5.34983 5.36576 5.08459 5.69484 5.08459C6.02392 5.08459 6.29161 5.34983 6.29161 5.67588C6.29161 6.00193 6.02392 6.26717 5.69484 6.26717ZM11.3182 11.7543C11.4358 11.6225 11.5637 11.4958 11.6967 11.3793C12.0087 11.1056 12.4554 11.0431 12.8306 11.2205L13.2193 11.4029L13.3625 11.0008C13.5023 10.6123 13.8621 10.3437 14.2782 10.3183C14.4555 10.3082 14.6362 10.3082 14.8118 10.3183C15.1307 10.3369 15.4154 10.4991 15.5945 10.7491V8.81815H4V12.1699H11.0897C11.134 12.0195 11.209 11.8776 11.3182 11.7543ZM5.69484 11.0853C5.36576 11.0853 5.09806 10.8201 5.09806 10.494C5.09806 10.168 5.36576 9.90274 5.69484 9.90274C6.02392 9.90274 6.29161 10.168 6.29161 10.494C6.29161 10.8201 6.02392 11.0853 5.69484 11.0853Z" fill="#3C506F"/>
</g>
</svg>
