<svg width="20" height="20" viewBox="0 0 20 20" fill="none" xmlns="http://www.w3.org/2000/svg">
<g id="ico_menu1_normal">
<g id="Frame" clip-path="url(#clip0_115_43681)">
<path id="Vector" d="M14.9 10.7H12.499C11.8992 11.5995 11.2397 12.4578 10.525 13.269L10 13.85L9.475 13.269C8.76027 12.4578 8.10079 11.5995 7.501 10.7H5.1L3 17H17L14.9 10.7Z" fill="#3C506F"/>
<path id="Vector_2" d="M13.5 6.5C13.5 5.57174 13.1313 4.6815 12.4749 4.02513C11.8185 3.36875 10.9283 3 10 3C9.07174 3 8.1815 3.36875 7.52513 4.02513C6.86875 4.6815 6.5 5.57174 6.5 6.5C6.5 8.894 10 12.8 10 12.8C10 12.8 13.5 8.894 13.5 6.5ZM8.6 6.5C8.6 6.22311 8.68211 5.95243 8.83594 5.7222C8.98978 5.49197 9.20843 5.31253 9.46424 5.20657C9.72006 5.10061 10.0016 5.07288 10.2731 5.1269C10.5447 5.18092 10.7942 5.31426 10.9899 5.51005C11.1857 5.70584 11.3191 5.9553 11.3731 6.22687C11.4271 6.49845 11.3994 6.77994 11.2934 7.03576C11.1875 7.29157 11.008 7.51022 10.7778 7.66406C10.5476 7.81789 10.2769 7.9 10 7.9C9.6287 7.9 9.2726 7.7525 9.01005 7.48995C8.7475 7.2274 8.6 6.8713 8.6 6.5Z" fill="#3C506F"/>
</g>
</g>
<defs>
<clipPath id="clip0_115_43681">
<rect width="14" height="14" fill="white" transform="translate(3 3)"/>
</clipPath>
</defs>
</svg>
