<svg width="20" height="20" viewBox="0 0 20 20" fill="none" xmlns="http://www.w3.org/2000/svg">
<g id="ico_menu3_normal">
<g id="Group 427319200">
<path id="Union" fill-rule="evenodd" clip-rule="evenodd" d="M10.7778 3.00003H9.33333V4.8308H10.7778V3.00003ZM6.77778 3.75388L5.55556 4.40003L6.44444 6.01542L7.77778 5.36926L6.77778 3.75388ZM3.77778 6.12311L3 7.30773L4.66667 8.27696L5.33333 7.09234L3.77778 6.12311ZM16.3333 6.12311L14.6667 7.09234L15.3333 8.27696L17 7.30773L16.3333 6.12311ZM13.2222 3.64619L12.2222 5.26157L13.5556 6.01542L14.4444 4.29234L13.2222 3.64619ZM16.5555 15.6001H14.8888V10.4308C14.8888 7.84622 12.7777 5.80006 10.111 5.80006C7.44436 5.80006 5.22214 7.84622 5.22214 10.4308V15.6001H3.55547C3.44436 15.6001 3.33325 15.7078 3.33325 15.8155V16.7847C3.33325 16.8924 3.44436 17.0001 3.55547 17.0001H16.5555C16.6666 17.0001 16.7777 16.8924 16.7777 16.7847V15.8155C16.7777 15.7078 16.6666 15.6001 16.5555 15.6001ZM11.8889 10.2154H10.3333L10.6667 8.27698C10.6667 8.16929 10.6667 8.16929 10.5556 8.16929H10.4444L8 10.9693V11.1847H9.66667L9.33333 13.1231C9.33333 13.1764 9.33333 13.2034 9.34679 13.217C9.36054 13.2308 9.38831 13.2308 9.44444 13.2308H9.55556L12 10.4308C12 10.4308 12 10.3231 11.8889 10.2154Z" fill="#3C506F"/>
</g>
</g>
</svg>
