<?xml version="1.0" encoding="utf-8"?>
<!-- Generator: Adobe Illustrator 25.0.0, SVG Export Plug-In . SVG Version: 6.00 Build 0)  -->
<svg version="1.1" id="图层_1" xmlns="http://www.w3.org/2000/svg" xmlns:xlink="http://www.w3.org/1999/xlink" x="0px" y="0px"
	 viewBox="0 0 16 16" style="enable-background:new 0 0 16 16;" xml:space="preserve">
<style type="text/css">
	.st0{fill-rule:evenodd;clip-rule:evenodd;fill:#D8DBE1;}
</style>
<g>
	<path class="st0" d="M10,7.4V4.8l2.8,2.3c0.6,0.1,1.2,0.3,1.7,0.6V6.4L10,2.9V0L1.5,2.9v10.6h-1V15H8c-0.3-0.4-0.6-1-0.8-1.5H3V4.1
		l5.5-2v6.4C8.9,8,9.4,7.7,10,7.4z"/>
	<path class="st0" d="M3.5,10.5h3.7c0.1-0.2,0.2-0.5,0.3-0.7V9h-4V10.5z"/>
	<rect x="3.5" y="6" class="st0" width="4" height="1.5"/>
	<path class="st0" d="M12,9c-1.7,0-3,1.3-3,3s1.3,3,3,3s3-1.3,3-3S13.7,9,12,9z M13.5,11.8h-1.2v0.3h1.2v0.6h-1.2v1.2h-0.7v-1.2
		h-1.1v-0.6h1.1v-0.3h-1.1v-0.6h0.9l-0.5-0.8l0.6-0.3l0.5,0.9l0.5-0.9l0.6,0.3l-0.5,0.8h0.9V11.8z"/>
</g>
</svg>
