<?xml version="1.0" encoding="utf-8"?>
<!-- Generator: Adobe Illustrator 25.0.0, SVG Export Plug-In . SVG Version: 6.00 Build 0)  -->
<svg version="1.1" id="图层_1" xmlns="http://www.w3.org/2000/svg" xmlns:xlink="http://www.w3.org/1999/xlink" x="0px" y="0px"
	 viewBox="0 0 16 16" style="enable-background:new 0 0 16 16;" xml:space="preserve">
<style type="text/css">
	.st0{fill:#D8DBE1;}
</style>
<g>
	<path class="st0" d="M12.2,2.2c0-0.4-0.1-0.8-0.3-1.1c-0.2-0.3-0.5-0.5-0.7-0.6c-0.2-0.1-0.5-0.2-0.7-0.2c-0.1,0-0.2,0-0.2,0
		c0,0-0.1,0-0.1,0l0,0l0,0h0h0h0H1.2v15.5h13.5V2.2H12.2z M13.2,14.2H2.8V1.8h7.4c0,0,0,0,0,0c0,0,0,0,0.1,0c0.1,0,0.2,0,0.2,0.1
		c0.1,0,0.1,0.1,0.2,0.1c0,0,0.1,0.1,0.1,0.3h-4C6.3,2.2,6,2.6,6,3s0.3,0.8,0.8,0.8h6.5V14.2z"/>
	<polygon class="st0" points="7,7.4 5.5,7.4 5.5,8.5 7.4,8.5 7.4,9 5.5,9 5.5,10.1 7.4,10.1 7.4,12 8.5,12 8.5,10.1 10.5,10.1 
		10.5,9 8.5,9 8.5,8.5 10.5,8.5 10.5,7.4 9,7.4 9.8,6 8.9,5.5 8,6.9 7.1,5.5 6.1,6 	"/>
</g>
</svg>
