<?xml version="1.0" encoding="utf-8"?>
<!-- Generator: Adobe Illustrator 25.0.0, SVG Export Plug-In . SVG Version: 6.00 Build 0)  -->
<svg version="1.1" id="图层_1" xmlns="http://www.w3.org/2000/svg" xmlns:xlink="http://www.w3.org/1999/xlink" x="0px" y="0px"
	 viewBox="0 0 16 16" style="enable-background:new 0 0 16 16;" xml:space="preserve">
<style type="text/css">
	.st0{fill:#D8DBE1;}
</style>
<g>
	<polygon class="st0" points="10.5,8.5 8.5,8.5 8.5,8 10.5,8 10.5,6.9 9,6.9 9.8,5.5 8.9,5 8,6.4 7.1,5 6.1,5.5 7,6.9 5.5,6.9 
		5.5,8 7.4,8 7.4,8.5 5.5,8.5 5.5,9.6 7.4,9.6 7.4,11.5 8.5,11.5 8.5,9.6 10.5,9.6 	"/>
	<polygon class="st0" points="12.8,11.7 12,11 10,13 12,15 12.8,14.3 12.2,13.7 15,13.7 15,12.3 12.2,12.3 	"/>
	<polygon class="st0" points="1,1 1,15 8.5,15 8.5,13.5 2.5,13.5 2.5,2.5 13.5,2.5 13.5,11 15,11 15,1 	"/>
</g>
</svg>
