<?xml version="1.0" encoding="utf-8"?>
<!-- Generator: Adobe Illustrator 25.0.0, SVG Export Plug-In . SVG Version: 6.00 Build 0)  -->
<svg version="1.1" id="图层_1" xmlns="http://www.w3.org/2000/svg" xmlns:xlink="http://www.w3.org/1999/xlink" x="0px" y="0px"
	 viewBox="0 0 16 16" style="enable-background:new 0 0 16 16;" xml:space="preserve">
<style type="text/css">
	.st0{fill-rule:evenodd;clip-rule:evenodd;fill:#D8DBE1;}
</style>
<g>
	<path class="st0" d="M1.5,8c0-3.6,2.9-6.5,6.5-6.5c3.6,0,6.5,2.9,6.5,6.5H16c0-4.4-3.6-8-8-8S0,3.6,0,8s3.6,8,8,8
		c0.5,0,1,0,1.5-0.1v-1.5c-0.5,0.1-1,0.2-1.5,0.2C4.4,14.5,1.5,11.6,1.5,8z"/>
	<polygon class="st0" points="11,7.7 11,6.4 9.2,6.4 10.2,4.7 9,4 8,5.8 7,4 5.7,4.7 6.8,6.4 5,6.4 5,7.7 7.3,7.7 7.3,8.3 5,8.3 
		5,9.6 7.3,9.6 7.3,12 8.6,12 8.6,9.6 9.5,9.6 9.5,8.3 8.6,8.3 8.6,7.7 	"/>
	<path class="st0" d="M10.9,9.5c-0.1,0.5-0.4,1.1-0.6,1.6c-0.3,0.6-0.5,1-0.8,1.3l0.4,1c0.2-0.3,0.4-0.5,0.5-0.7V16h0.9v-4.9
		c0.2-0.4,0.3-0.9,0.5-1.4L10.9,9.5z"/>
	<path class="st0" d="M15,14.6c0,0.1-0.1,0.2-0.1,0.3c0,0-0.1,0.1-0.2,0.1c-0.1,0-0.2,0-0.4,0c-0.3,0-0.5,0-0.6,0
		c-0.1,0-0.4,0-0.6,0c-0.1,0-0.2,0-0.3,0c-0.1,0-0.1-0.1-0.1-0.1c0-0.1,0-0.2,0-0.3v-2.2l0.5-0.1v2.4h0.9v-2.6l0.6-0.2
		c0,0.2,0,0.5,0,1c0,0.1,0,0.2-0.1,0.2c0,0-0.1,0.1-0.2,0.1l-0.2,0l0.3,1l0.3,0c0.3,0,0.5-0.1,0.6-0.2c0.1-0.1,0.2-0.3,0.2-0.6
		l0-0.7c0-0.3,0-0.7,0-1c0-0.4,0-0.7,0-1.1l-1.5,0.4V9.6l-0.9,0v1.6l-0.5,0.1v-1.1l-0.9,0v1.4l-0.5,0.1l0.2,1l0.3-0.1v2.3
		c0,0.3,0,0.5,0.1,0.6c0.1,0.1,0.2,0.2,0.3,0.3c0.1,0.1,0.3,0.1,0.6,0.1c0.3,0,0.6,0,1,0s0.7,0,1,0c0.3,0,0.5,0,0.6-0.1
		c0.1,0,0.2-0.1,0.3-0.2c0.1-0.1,0.1-0.3,0.2-0.5c0.1-0.3,0.1-0.5,0.1-0.7l-0.9-0.3C15.1,14.2,15.1,14.4,15,14.6z"/>
</g>
</svg>
