<?xml version="1.0" encoding="utf-8"?>
<!-- Generator: Adobe Illustrator 25.0.0, SVG Export Plug-In . SVG Version: 6.00 Build 0)  -->
<svg version="1.1" id="图层_1" xmlns="http://www.w3.org/2000/svg" xmlns:xlink="http://www.w3.org/1999/xlink" x="0px" y="0px"
	 viewBox="0 0 16 16" style="enable-background:new 0 0 16 16;" xml:space="preserve">
<style type="text/css">
	.st0{fill-rule:evenodd;clip-rule:evenodd;fill:#D8DBE1;}
</style>
<g>
	<path class="st0" d="M8,5.2c0.4,0,0.8-0.3,0.8-0.8V1.6C12,2,14.5,4.7,14.5,8H16c0-4.4-3.6-8-8-8H7.2v4.4C7.2,4.8,7.6,5.2,8,5.2z"/>
	<path class="st0" d="M1.5,8H0c0,4.4,3.6,8,8,8c0.5,0,1,0,1.5-0.1v-1.6c-0.5,0.1-1,0.2-1.5,0.2C4.4,14.5,1.5,11.6,1.5,8z"/>
	<path class="st0" d="M6.5,8.9L6.5,8.9L6.5,8.9C6.7,9.1,7,9.3,7.2,9.3c0.3,0,0.5-0.1,0.7-0.3c0.2-0.2,0.3-0.5,0.3-0.7
		C8.3,8,8.1,7.7,8,7.5l0,0l0,0h0C7.8,7.4,7.7,7.3,7.6,7.3L4,5l2.3,3.6C6.3,8.7,6.4,8.8,6.5,8.9z"/>
	<path class="st0" d="M15.5,9.5h-4C11.2,9.5,11,9.7,11,10v0.5c-0.2,0.1-0.3,0.3-0.3,0.5s0.1,0.4,0.3,0.5v0.9
		c-0.2,0.1-0.3,0.3-0.3,0.5s0.1,0.4,0.3,0.5v0.9c-0.2,0.1-0.3,0.3-0.3,0.5c0,0.2,0.1,0.4,0.3,0.5v0.4c0,0.3,0.2,0.5,0.5,0.5h4
		c0.3,0,0.5-0.2,0.5-0.5V10C16,9.7,15.8,9.5,15.5,9.5z M15,12.6h-1.2v0.3H15v0.6h-1.2v1.2h-0.7v-1.2H12v-0.6h1.1v-0.3H12V12h0.9
		l-0.5-0.8l0.6-0.3l0.5,0.9l0.5-0.9l0.6,0.3L14.1,12H15V12.6z"/>
</g>
</svg>
