<?xml version="1.0" encoding="utf-8"?>
<!-- Generator: Adobe Illustrator 25.0.0, SVG Export Plug-In . SVG Version: 6.00 Build 0)  -->
<svg version="1.1" id="图层_1" xmlns="http://www.w3.org/2000/svg" xmlns:xlink="http://www.w3.org/1999/xlink" x="0px" y="0px"
	 viewBox="0 0 16 16" style="enable-background:new 0 0 16 16;" xml:space="preserve">
<style type="text/css">
	.st0{fill:#D8DBE1;}
</style>
<g>
	<path class="st0" d="M1,1v3H0v3h1v2H0v3h1v3h12.5H15v-1.5V1H1z M1,5h1.5v1H1V5z M1,10h1.5v1H1V10z M13.5,13.5h-11V12h1V9h-1V7h1V4
		h-1V2.5h11V13.5z"/>
	<polygon class="st0" points="7.4,11.5 8.5,11.5 8.5,9.6 10.5,9.6 10.5,8.5 8.5,8.5 8.5,8 10.5,8 10.5,6.9 9,6.9 9.8,5.5 8.9,5 
		8,6.4 7.1,5 6.1,5.5 7,6.9 5.5,6.9 5.5,8 7.4,8 7.4,8.5 5.5,8.5 5.5,9.6 7.4,9.6 	"/>
</g>
</svg>
