<?xml version="1.0" encoding="utf-8"?>
<!-- Generator: Adobe Illustrator 25.0.0, SVG Export Plug-In . SVG Version: 6.00 Build 0)  -->
<svg version="1.1" id="图层_1" xmlns="http://www.w3.org/2000/svg" xmlns:xlink="http://www.w3.org/1999/xlink" x="0px" y="0px"
	 viewBox="0 0 16 16" style="enable-background:new 0 0 16 16;" xml:space="preserve">
<style type="text/css">
	.st0{fill-rule:evenodd;clip-rule:evenodd;fill:#D8DBE1;}
</style>
<g>
	<path class="st0" d="M1.5,8c0-3.6,2.9-6.5,6.5-6.5c3.6,0,6.5,2.9,6.5,6.5H16c0-4.4-3.6-8-8-8S0,3.6,0,8s3.6,8,8,8
		c0.5,0,1,0,1.5-0.1v-1.5c-0.5,0.1-1,0.2-1.5,0.2C4.4,14.5,1.5,11.6,1.5,8z"/>
	<polygon class="st0" points="8.6,7.7 11,7.7 11,6.4 9.2,6.4 10.2,4.7 9,4 8,5.8 7,4 5.7,4.7 6.8,6.4 5,6.4 5,7.7 7.3,7.7 7.3,8.3 
		5,8.3 5,9.6 7.3,9.6 7.3,12 8.6,12 8.6,9.6 9.5,9.6 9.5,8.3 8.6,8.3 	"/>
	<path class="st0" d="M14,9l-1.2,0c-0.1,0.3-0.1,0.5-0.2,0.8H11V16h5V9.8h-2.2L14,9z M15,15H12v-0.7H15V15z M15,13.2H12v-0.7H15
		V13.2z M15,10.8v0.7H12v-0.7H15z"/>
</g>
</svg>
