<?xml version="1.0" encoding="utf-8"?>
<!-- Generator: Adobe Illustrator 25.0.0, SVG Export Plug-In . SVG Version: 6.00 Build 0)  -->
<svg version="1.1" id="图层_1" xmlns="http://www.w3.org/2000/svg" xmlns:xlink="http://www.w3.org/1999/xlink" x="0px" y="0px"
	 viewBox="0 0 16 16" style="enable-background:new 0 0 16 16;" xml:space="preserve">
<style type="text/css">
	.st0{fill:#D8DBE1;}
</style>
<g>
	<polygon class="st0" points="1,1 1,15 8,15 8,13.5 2.5,13.5 2.5,2.5 13.5,2.5 13.5,8 15,8 15,1 	"/>
	<path class="st0" d="M12,9c-1.7,0-3,1.3-3,3s1.3,3,3,3s3-1.3,3-3S13.7,9,12,9z M11.6,13.8l-1.7-1.6l0.7-0.7l0.9,0.9l1.8-1.8
		l0.7,0.7L11.6,13.8z"/>
	<rect x="4.5" y="9" class="st0" width="3.5" height="1.5"/>
	<rect x="4.5" y="4" class="st0" width="7" height="1.5"/>
	<rect x="4.5" y="6.5" class="st0" width="7" height="1.5"/>
</g>
</svg>
