<?xml version="1.0" encoding="utf-8"?>
<!-- Generator: Adobe Illustrator 25.0.0, SVG Export Plug-In . SVG Version: 6.00 Build 0)  -->
<svg version="1.1" id="图层_1" xmlns="http://www.w3.org/2000/svg" xmlns:xlink="http://www.w3.org/1999/xlink" x="0px" y="0px"
	 viewBox="0 0 16 16" style="enable-background:new 0 0 16 16;" xml:space="preserve">
<style type="text/css">
	.st0{fill-rule:evenodd;clip-rule:evenodd;fill:#D8DBE1;}
</style>
<g>
	<path class="st0" d="M10.8,9c1.2-0.9,2-2.4,2-4c0-2.8-2.2-5-4.9-5S3,2.2,3,5c0,1.7,0.8,3.1,2,4c0,0,0,0,0,0c0,0,0,0,0,0
		C4.2,9.4,3.4,10,2.7,10.7c-0.7,0.7-1.4,1.6-1.8,2.5C0.5,14,0,15.6,0,16h1.5c0.5-2.5,1.3-3.3,2.2-4.3l0,0C4.9,10.6,6.3,10,7.9,10
		C9.6,10,10.8,9,10.8,9z M4.5,5c0-0.9,0.4-1.8,1-2.4s1.5-1,2.4-1c0.9,0,1.8,0.4,2.4,1c0.6,0.7,1,1.5,1,2.4s-0.4,1.8-1,2.4
		c-0.6,0.7-1.5,1-2.4,1c-0.9,0-1.8-0.4-2.4-1S4.5,5.9,4.5,5z"/>
	<polygon class="st0" points="7,11 7.6,12 7,15 8,16 9,15 8.4,12 9,11 	"/>
	<path class="st0" d="M13,10c-1.7,0-3,1.3-3,3s1.3,3,3,3s3-1.3,3-3S14.7,10,13,10z M15,14.7h-0.8v-0.8H13h-1.2v0.8H11v-1.6l0.4-0.4
		H11v-0.4h0.5l0.3-0.8h2.4l0.3,0.8H15v0.4h-0.4l0.4,0.4V14.7z"/>
	<rect x="11.4" y="13.1" class="st0" width="0.8" height="0.4"/>
	<rect x="13.8" y="13.1" class="st0" width="0.8" height="0.4"/>
</g>
</svg>
