<?xml version="1.0" encoding="utf-8"?>
<!-- Generator: Adobe Illustrator 25.0.0, SVG Export Plug-In . SVG Version: 6.00 Build 0)  -->
<svg version="1.1" id="图层_1" xmlns="http://www.w3.org/2000/svg" xmlns:xlink="http://www.w3.org/1999/xlink" x="0px" y="0px"
	 viewBox="0 0 16 16" style="enable-background:new 0 0 16 16;" xml:space="preserve">
<style type="text/css">
	.st0{fill-rule:evenodd;clip-rule:evenodd;fill:#D8DBE1;}
</style>
<g>
	<path class="st0" d="M8,6.9c1.9,0,3.4-1.5,3.4-3.4S9.9,0,8,0S4.6,1.5,4.6,3.4S6.1,6.9,8,6.9z M8,1.5c1.1,0,1.9,0.9,1.9,1.9
		S9.1,5.4,8,5.4S6.1,4.5,6.1,3.4S6.9,1.5,8,1.5z"/>
	<path class="st0" d="M3.6,10.3c0.4-0.7,1.2-0.8,2-0.8h2.1C8,8.9,8.5,8.4,9,8H5.1c-1.2,0-2.3,0.6-3,1.6l-1.8,2.7
		c-0.5,0.8-0.5,1.7,0,2.5C0.8,15.5,1.6,16,2.5,16H9c-0.5-0.4-1-0.9-1.3-1.5H6.2c0.1-0.6,0.4-1.2,0.9-1.6C7,12.6,7,12.3,7,12
		c0-0.2,0-0.4,0-0.6c-1.1,0.6-1.8,1.8-2,3.1H3.5c-0.4,0-1.5,0-1.7-0.4c-0.2-0.3-0.3-0.8-0.1-1.1L3.6,10.3z"/>
	<path class="st0" d="M12,9c-1.7,0-3,1.3-3,3s1.3,3,3,3s3-1.3,3-3S13.7,9,12,9z M13.5,11.8h-1.2v0.3h1.2v0.6h-1.2v1.2h-0.7v-1.2
		h-1.1v-0.6h1.1v-0.3h-1.1v-0.6h0.9l-0.5-0.8l0.6-0.3l0.5,0.9l0.5-0.9l0.6,0.3l-0.5,0.8h0.9V11.8z"/>
</g>
</svg>
