<?xml version="1.0" standalone="no"?><!DOCTYPE svg PUBLIC "-//W3C//DTD SVG 1.1//EN" "http://www.w3.org/Graphics/SVG/1.1/DTD/svg11.dtd"><svg t="1662018003171" class="icon" viewBox="0 0 1024 1024" version="1.1" xmlns="http://www.w3.org/2000/svg" p-id="8330" xmlns:xlink="http://www.w3.org/1999/xlink" width="200" height="200"><path d="M915.2 524.8l-96-377.6-25.6-83.2-83.2 19.2-435.2 115.2-83.2 19.2 19.2 83.2 96 377.6 19.2 83.2 83.2-19.2 441.6-115.2 83.2-19.2-19.2-83.2z m-518.4 134.4L294.4 281.6l441.6-115.2L832 544l-435.2 115.2z" p-id="8331"></path><path d="M179.2 396.8L294.4 832l646.4-166.4 19.2 83.2-640 160c-6.4 32-32 51.2-64 51.2-38.4 0-64-25.6-64-64 0-19.2 12.8-38.4 25.6-51.2L108.8 428.8 0 352l64-44.8 115.2 89.6zM570.624 359.232l148.736-38.336 16 61.952-148.736 38.4z" p-id="8332"></path><path d="M481.984 475.776l260.288-67.072 16 61.952L497.92 537.728z" p-id="8333"></path></svg>