<?xml version="1.0" standalone="no"?><!DOCTYPE svg PUBLIC "-//W3C//DTD SVG 1.1//EN" "http://www.w3.org/Graphics/SVG/1.1/DTD/svg11.dtd"><svg t="1662018034678" class="icon" viewBox="0 0 1024 1024" version="1.1" xmlns="http://www.w3.org/2000/svg" p-id="9084" xmlns:xlink="http://www.w3.org/1999/xlink" width="200" height="200"><path d="M672 512V443.456H575.104l54.08-89.152L567.872 320l-57.664 92.544L456.128 320l-64.896 34.304 57.664 89.152H352V512h122.176v30.848H352v68.608h122.176V736h72.064V611.456H672V542.848H546.24V512H672zM896 789.312h-179.2l38.4-38.4L704 704l-128 128 128 128 51.2-46.912-38.4-38.4H896v-85.376z" p-id="9085"></path><path d="M224 160h576V704H896V64H128v896h416v-96h-320v-704z" p-id="9086"></path></svg>