<?xml version="1.0" encoding="utf-8"?>
<!-- Generator: Adobe Illustrator 25.0.0, SVG Export Plug-In . SVG Version: 6.00 Build 0)  -->
<svg version="1.1" id="图层_1" xmlns="http://www.w3.org/2000/svg" xmlns:xlink="http://www.w3.org/1999/xlink" x="0px" y="0px"
	 viewBox="0 0 20 20" style="enable-background:new 0 0 20 20;" xml:space="preserve">
<g>
	<polygon class="st0" points="10.1,3 3.5,5.6 10.1,8.3 16.6,5.6 	"/>
	<path class="st0" d="M3,12.5c0,0.2,0,0.4,0.1,0.7c0.1,0.2,0.2,0.4,0.3,0.6c0.1,0.2,0.3,0.4,0.5,0.5c0.2,0.2,0.4,0.3,0.6,0.4
		c0.6,0.3,1.2,0.5,1.8,0.8c0.6,0.3,1.1,0.5,1.6,0.7C8.5,16.5,9,16.8,9.5,17V9.5L3,6.7V12.5z"/>
	<path class="st0" d="M10.5,9.5V17c0.5-0.2,1.1-0.5,1.7-0.7c0.5-0.2,1-0.4,1.6-0.7c0.6-0.2,1.1-0.5,1.7-0.7c0.2-0.1,0.4-0.2,0.6-0.4
		c0.2-0.2,0.4-0.4,0.5-0.6c0.2-0.2,0.3-0.5,0.4-0.7C17,13,17,12.8,17,12.5V6.7L10.5,9.5z"/>
</g>
</svg>
