<?xml version="1.0" standalone="no"?><!DOCTYPE svg PUBLIC "-//W3C//DTD SVG 1.1//EN" "http://www.w3.org/Graphics/SVG/1.1/DTD/svg11.dtd"><svg t="1662017989813" class="icon" viewBox="0 0 1024 1024" version="1.1" xmlns="http://www.w3.org/2000/svg" p-id="8029" xmlns:xlink="http://www.w3.org/1999/xlink" width="200" height="200"><path d="M128 64v192H64v192h64v128H64v192h64v192h768V64H128z m0 256h96v64H128V320z m0 320h96v64H128v-64z m672 224h-576V768h64V576h-64V448h64V256h-64V160h576v704z" p-id="8030"></path><path d="M473.6 736h70.4V614.4h128V544h-128V512h128V441.6H576l51.2-89.6-57.6-32L512 409.6 454.4 320l-64 32 57.6 89.6H352V512h121.6v32H352v70.4h121.6z" p-id="8031"></path></svg>