<?xml version="1.0" encoding="utf-8"?>
<!-- Generator: Adobe Illustrator 25.0.0, SVG Export Plug-In . SVG Version: 6.00 Build 0)  -->
<svg version="1.1" id="图层_1" xmlns="http://www.w3.org/2000/svg" xmlns:xlink="http://www.w3.org/1999/xlink" x="0px" y="0px"
	 viewBox="0 0 14 14" style="enable-background:new 0 0 14 14;" xml:space="preserve">
<path class="st0" d="M6.6,0c2,0,3.6,1.6,3.6,3.7c0,2-1.6,3.7-3.6,3.7C4.6,7.3,3,5.7,3,3.7C3,1.6,4.6,0,6.6,0z"/>
<path class="st0" d="M7.7,9.7C7.5,9.9,7.4,10,7.4,10c-0.1,0.1-0.2,0.2-0.2,0.3C7.1,10.4,7,10.5,7,10.6c0,0.1-0.1,0.2-0.1,0.4
	c-0.1,0.2-0.1,0.4-0.2,0.6c-0.1,0.2-0.1,0.4-0.2,0.6c-0.1,0.2-0.1,0.4-0.1,0.5c0,0.2,0,0.3,0.1,0.4c0.1,0.1,0.2,0.1,0.4,0.1
	c0.1,0,0.3-0.1,0.5-0.1C7.5,13.1,7.7,13,7.9,13c0.2-0.1,0.4-0.1,0.6-0.2c0.2-0.1,0.4-0.1,0.5-0.2c0.1,0,0.2-0.1,0.3-0.2
	c0.1-0.1,0.2-0.2,0.3-0.2c0,0,0.1-0.1,0.3-0.3c0.2-0.2,0.4-0.4,0.6-0.6c0.2-0.3,0.5-0.5,0.8-0.8l0.3-0.3L12,9.7
	c0.7,0.8,1.1,1.8,1.1,3v0.3c0,1-2.2,1.1-5,1.1H5c-2.7,0-5,0-5-1.1v-0.3C0,10,2.2,7.9,5,7.9h3.2C8.6,7.9,9,8,9.3,8L9.2,8.2L8.3,9
	C8.1,9.3,7.9,9.5,7.7,9.7z"/>
<path class="st0" d="M14,6.6c0-0.1,0-0.1-0.1-0.2c-0.1-0.2-0.2-0.3-0.3-0.5c-0.1-0.2-0.3-0.3-0.4-0.3c-0.1,0-0.1-0.1-0.2-0.1
	c-0.1,0-0.1,0-0.2,0c-0.1,0-0.2,0-0.2,0c-0.1,0-0.2,0.1-0.2,0.1c-0.1,0.1-0.1,0.1-0.2,0.2C12,5.9,11.9,6,11.9,6.1l1.5,1.6
	c0,0,0.1-0.1,0.1-0.1c0,0,0.1-0.1,0.1-0.1c0.1-0.1,0.1-0.1,0.2-0.2C13.9,7.1,13.9,7.1,14,7c0-0.1,0-0.1,0-0.2S14,6.6,14,6.6z"/>
<path class="st0" d="M7.8,10.2c-0.1,0.1-0.2,0.2-0.2,0.2c-0.1,0.1-0.1,0.1-0.2,0.2c0,0.1-0.1,0.1-0.1,0.2c0,0.1-0.1,0.1-0.1,0.3
	S7.1,11.4,7,11.6c0,0.2-0.1,0.3-0.1,0.5c0,0.1-0.1,0.3-0.1,0.3c0,0.1,0,0.2,0,0.3c0,0.1,0.1,0.1,0.3,0.1c0.1,0,0.2,0,0.3-0.1
	c0.1,0,0.3-0.1,0.5-0.1c0.2-0.1,0.3-0.1,0.5-0.2c0.1-0.1,0.3-0.1,0.3-0.1c0.1,0,0.1-0.1,0.2-0.1C9,12.1,9.1,12,9.1,12
	c0,0,0.1-0.1,0.2-0.2c0.1-0.1,0.3-0.3,0.4-0.4c0.2-0.2,0.4-0.4,0.6-0.6L11,10l1.8-1.8l-1.5-1.6L9.5,8.5L8.8,9.1L8.2,9.8
	C8.1,9.9,7.9,10.1,7.8,10.2z"/>
</svg>
