<svg width="16" height="16" viewBox="0 0 16 16" fill="none" xmlns="http://www.w3.org/2000/svg">
<g id="&#229;&#155;&#190;&#230;&#160;&#135;/&#232;&#143;&#156;&#229;&#141;&#149;/&#232;&#180;&#162;&#229;&#138;&#161;&#231;&#174;&#161;&#231;&#144;&#134;">
<path id="Union" fill-rule="evenodd" clip-rule="evenodd" d="M3.5 2.5H12.5V13.5H3.5V12H4.5V9H3.5V7H4.5V4H3.5V2.5ZM2 9V7H1V4H2V1H14V13.5V15H12.5H2V12H1V9H2ZM3.5 5H2V6H3.5V5ZM2 10H3.5V11H2V10Z" fill="#D8DBE1"/>
<path id="Vector" d="M10.5001 8V6.92857H8.98603L9.8311 5.53571L8.87336 5L7.97195 6.44643L7.12688 5L6.11279 5.53571L7.0142 6.92857H5.5V8H7.40857V8.48214H5.5V9.55357H7.40857V11.5H8.53533V9.55357H10.5001V8.48214H8.53533V8H10.5001Z" fill="#D8DBE1"/>
</g>
</svg>
