<?xml version="1.0" standalone="no"?><!DOCTYPE svg PUBLIC "-//W3C//DTD SVG 1.1//EN" "http://www.w3.org/Graphics/SVG/1.1/DTD/svg11.dtd"><svg t="1662018069198" class="icon" viewBox="0 0 1024 1024" version="1.1" xmlns="http://www.w3.org/2000/svg" p-id="9686" xmlns:xlink="http://www.w3.org/1999/xlink" width="200" height="200"><path d="M438.862769 462.769231h337.604923a5.632 5.632 0 0 0 5.592616-5.592616v-39.384615a5.632 5.632 0 0 0-5.592616-5.632h-337.604923a5.632 5.632 0 0 0-5.632 5.632v39.384615c0 3.072 2.56 5.632 5.632 5.632zM433.230769 606.286769c0 3.111385 2.56 5.632 5.632 5.632h337.604923a5.632 5.632 0 0 0 5.592616-5.632v-39.384615a5.632 5.632 0 0 0-5.592616-5.592616h-337.604923a5.632 5.632 0 0 0-5.632 5.592616v39.384615z m354.461539-341.779692H236.307692a5.632 5.632 0 0 0-5.632 5.632v39.384615c0 3.072 2.56 5.632 5.632 5.632h551.384616a5.632 5.632 0 0 0 5.632-5.632v-39.384615A5.632 5.632 0 0 0 787.692308 264.467692zM787.692308 708.923077H236.307692a5.632 5.632 0 0 0-5.632 5.592615v39.384616c0 3.111385 2.56 5.632 5.632 5.632h551.384616a5.632 5.632 0 0 0 5.632-5.632v-39.384616a5.632 5.632 0 0 0-5.632-5.592615zM252.061538 603.529846l109.922462-86.567384a6.222769 6.222769 0 0 0 0-9.80677l-109.883077-86.646154a6.262154 6.262154 0 0 0-10.161231 4.883693v173.213538a6.262154 6.262154 0 0 0 10.121846 4.923077z" p-id="9687"></path></svg>