<?xml version="1.0" encoding="utf-8"?>
<!-- Generator: Adobe Illustrator 25.0.0, SVG Export Plug-In . SVG Version: 6.00 Build 0)  -->
<svg version="1.1" id="图层_1" xmlns="http://www.w3.org/2000/svg" xmlns:xlink="http://www.w3.org/1999/xlink" x="0px" y="0px"
	 viewBox="0 0 20 20" style="enable-background:new 0 0 20 20;" xml:space="preserve">
<g>
	<path class="st0" d="M4.8,10c0.5,0.3,1.3,0.6,2.2,0.7c0.9,0.2,1.9,0.3,3,0.3c0.3,0,0.7,0,1,0c0.7-0.8,1.7-1.2,2.9-1.2
		c0.5,0,0.9,0.1,1.3,0.2C15.7,9.7,16,9.4,16,9V7.7c-0.6,0.4-1.5,0.8-2.5,1C12.4,8.9,11.2,9,10,9S7.6,8.9,6.5,8.7
		C5.5,8.4,4.6,8.1,4,7.7V9C4,9.4,4.3,9.7,4.8,10z"/>
	<path class="st0" d="M10.1,15C10.1,15,10,15,10.1,15c-1.3,0-2.5-0.1-3.6-0.3c-1.1-0.2-1.9-0.6-2.5-1V15c0,0.4,0.3,0.7,0.8,1
		c0.5,0.3,1.3,0.6,2.2,0.7c0.9,0.2,1.9,0.3,3,0.3c0.5,0,1,0,1.5-0.1C10.8,16.5,10.4,15.8,10.1,15z"/>
	<path class="st0" d="M4.8,13c0.5,0.3,1.3,0.6,2.2,0.7C7.9,13.9,8.9,14,9.9,14c0-0.1,0-0.2,0-0.2c0-0.6,0.1-1.2,0.4-1.8
		c-0.1,0-0.2,0-0.3,0c-1.2,0-2.4-0.1-3.5-0.3c-1.1-0.2-1.9-0.6-2.5-1V12C4,12.4,4.3,12.7,4.8,13z"/>
	<path class="st0" d="M4.8,7C5.3,7.3,6.1,7.6,7,7.7C7.9,7.9,8.9,8,10,8s2.1-0.1,3-0.3c0.9-0.2,1.7-0.4,2.2-0.7C15.7,6.7,16,6.4,16,6
		V5c0-0.4-0.3-0.7-0.8-1c-0.5-0.3-1.3-0.6-2.2-0.7C12.1,3.1,11.1,3,10,3S7.9,3.1,7,3.3C6.1,3.4,5.3,3.7,4.8,4C4.3,4.3,4,4.6,4,5v1
		C4,6.4,4.3,6.7,4.8,7z"/>
	<path class="st0" d="M13.9,10.6c-1.7,0-3.1,1.4-3.1,3.1c0,1.7,1.4,3.1,3.1,3.1c1.7,0,3.1-1.4,3.1-3.1C17,12,15.6,10.6,13.9,10.6z
		 M15.5,13l-1.1,1.2v1.1l-1-0.3v-0.8L12.3,13c0,0-0.1-0.1-0.1-0.1c0,0,0-0.1,0-0.1c0,0,0-0.1,0.1-0.1c0,0,0.1,0,0.1,0h2.9
		c0,0,0.1,0,0.1,0c0,0,0.1,0.1,0.1,0.1c0,0,0,0.1,0,0.1C15.5,12.9,15.5,13,15.5,13z"/>
</g>
</svg>
