<?xml version="1.0" standalone="no"?><!DOCTYPE svg PUBLIC "-//W3C//DTD SVG 1.1//EN" "http://www.w3.org/Graphics/SVG/1.1/DTD/svg11.dtd"><svg t="1662018047026" class="icon" viewBox="0 0 1024 1024" version="1.1" xmlns="http://www.w3.org/2000/svg" p-id="9386" xmlns:xlink="http://www.w3.org/1999/xlink" width="200" height="200"><path d="M320 275.712l-33.792-33.792a352 352 0 0 1 576.384 301.504l1.408 0.576h94.848A448 448 0 0 0 218.112 173.824L172.288 128 128 320l192-44.288zM672 512V443.456H575.104l54.08-89.152L567.872 320l-57.664 92.544L456.128 320l-64.896 34.304 57.664 89.152H352V512h122.112v30.848H352v68.608h122.112V736h72.128V611.456H672V542.848H546.24V512H672zM97.984 340.48l88.704 36.8c-7.04 16.896-12.736 34.368-17.024 52.48l-93.44-22.4c5.568-23.04 12.8-45.376 21.76-66.816z m-32.64 136.32a454.336 454.336 0 0 0 0 70.4l95.744-7.424a358.272 358.272 0 0 1 0-55.488L65.28 476.8z m10.88 139.84l93.44-22.4c4.288 18.112 10.048 35.648 17.024 52.48l-88.704 36.8a444.8 444.8 0 0 1-21.76-66.88z m53.76 129.472l81.792-50.24c9.664 15.744 20.544 30.72 32.512 44.736l-72.96 62.336a449.664 449.664 0 0 1-41.344-56.832z m91.072 106.56l62.4-72.96c13.952 11.968 28.928 22.848 44.672 32.512l-50.24 81.792a449.344 449.344 0 0 1-56.832-41.344z m119.424 73.344l36.8-88.704c16.832 7.04 34.368 12.736 52.48 17.024l-22.4 93.44c-23.04-5.568-45.376-12.8-66.88-21.76z m136.32 32.64l7.424-95.744a357.952 357.952 0 0 0 55.552 0l7.424 95.744a453.952 453.952 0 0 1-70.4 0z m139.84-10.88l-22.4-93.44c18.112-4.288 35.648-9.984 52.48-17.024l36.8 88.704a443.52 443.52 0 0 1-66.88 21.76z m129.472-53.76l-50.24-81.792c15.744-9.6 30.72-20.544 44.736-32.512l62.336 72.96a449.152 449.152 0 0 1-56.832 41.344z m106.56-91.072l-72.96-62.336c11.968-14.08 22.848-28.992 32.512-44.736l81.792 50.24c-12.288 20.032-26.112 39.04-41.344 56.832z m73.344-119.424l-88.704-36.8c7.04-16.832 12.736-34.368 17.024-52.48l93.44 22.4c-5.568 23.04-12.8 45.376-21.76 66.88z" p-id="9387"></path></svg>