<?xml version="1.0" standalone="no"?><!DOCTYPE svg PUBLIC "-//W3C//DTD SVG 1.1//EN" "http://www.w3.org/Graphics/SVG/1.1/DTD/svg11.dtd"><svg t="1662018042891" class="icon" viewBox="0 0 1024 1024" version="1.1" xmlns="http://www.w3.org/2000/svg" p-id="9235" xmlns:xlink="http://www.w3.org/1999/xlink" width="200" height="200"><path d="M288 320h448v96h-448zM288 480h320V576h-320zM704 64H320v192h384V64zM608 192h-192V128h192v64z" p-id="9236"></path><path d="M224 224H256V128H128v832h416v-96h-320zM800 512H896V128h-128v96h32zM896 736v-70.4h-96l51.2-89.6-57.6-32-57.6 89.6-57.6-89.6-64 32 57.6 89.6H576v70.4h121.6v32H576v70.4h121.6V960H768v-121.6h128V768h-128v-32z" p-id="9237"></path></svg>