<svg width="16" height="16" viewBox="0 0 16 16" fill="none" xmlns="http://www.w3.org/2000/svg">
<g id="&#229;&#155;&#190;&#230;&#160;&#135;/&#232;&#143;&#156;&#229;&#141;&#149;/&#230;&#149;&#176;&#230;&#141;&#174;">
<g id="menu_user">
<path id="Union" fill-rule="evenodd" clip-rule="evenodd" d="M7.75 0.5C11.1637 0.5 14 1.87522 14 3.90908V8.01021H12.75L12.7506 6.01112C11.6044 6.83203 9.77875 7.31817 7.75 7.31817C5.72125 7.31817 3.89625 6.83271 2.75 6.01181V6.64794L2.75375 6.7059C2.84375 7.60794 4.6925 8.57953 7.14875 8.6818V10.0441C5.38437 9.97043 3.77312 9.50543 2.75 8.76498V9.37521L2.75375 9.43862C2.83 10.2254 4.08125 11.0879 5.97312 11.4166V12.7638C4.7525 12.5518 3.505 12.1366 2.75 11.5693V12.1202C2.75 12.9813 4.52437 13.9659 6.98 14.1377V15.4986C4.00187 15.2906 1.60062 14.0327 1.50312 12.2382L1.5 12.1202V3.90908L1.50312 3.79454C1.6075 1.82409 4.4 0.5 7.75 0.5ZM7.75 1.86363C4.95 1.86363 2.75 2.93068 2.75 3.90908C2.75 4.88749 4.95 5.95453 7.75 5.95453C10.55 5.95453 12.75 4.88749 12.75 3.90908C12.75 2.93068 10.55 1.86363 7.75 1.86363ZM10.1064 12.0647C10.1064 12.3093 10.2036 12.5438 10.3765 12.7168C10.5495 12.8897 10.784 12.9869 11.0286 12.9869C11.2732 12.9869 11.5077 12.8897 11.6806 12.7168C11.8536 12.5438 11.9507 12.3093 11.9507 12.0647C11.9507 11.8202 11.8536 11.5856 11.6806 11.4127C11.5077 11.2397 11.2732 11.1426 11.0286 11.1426C10.784 11.1426 10.5495 11.2397 10.3765 11.4127C10.2036 11.5856 10.1064 11.8202 10.1064 12.0647ZM9.28535 8.99219H12.7711L14.4998 12.066L12.7711 15.1398H9.28535L7.55664 12.066L9.28535 8.99219ZM13.0889 12.066L12.0518 10.2217H10.004L8.9669 12.066L10.0046 13.9103H12.0512L13.0889 12.066Z" fill="#C9CDD4"/>
</g>
</g>
</svg>
