<?xml version="1.0" standalone="no"?><!DOCTYPE svg PUBLIC "-//W3C//DTD SVG 1.1//EN" "http://www.w3.org/Graphics/SVG/1.1/DTD/svg11.dtd"><svg t="1662018014662" class="icon" viewBox="0 0 1024 1024" version="1.1" xmlns="http://www.w3.org/2000/svg" p-id="8633" xmlns:xlink="http://www.w3.org/1999/xlink" width="200" height="200"><path d="M640 569.6c70.4-51.2 115.2-134.4 115.2-224C755.2 192 633.6 64 480 64S204.8 192 204.8 345.6c0 96 44.8 172.8 115.2 224-51.2 19.2-96 51.2-134.4 89.6-38.4 38.4-83.2 89.6-102.4 134.4-19.2 51.2-19.2 70.4-19.2 96h83.2c0-57.6 44.8-115.2 102.4-166.4 64-64 147.2-96 236.8-96C576 620.8 640 569.6 640 569.6zM288 345.6c0-51.2 19.2-102.4 57.6-134.4 38.4-38.4 83.2-64 134.4-64s96 19.2 134.4 57.6c38.4 38.4 57.6 83.2 57.6 134.4s-19.2 102.4-57.6 134.4c-38.4 44.8-83.2 64-134.4 64S384 518.4 345.6 480s-57.6-83.2-57.6-134.4z" p-id="8634"></path><path d="M448 640l38.4 64-38.4 192 64 64 64-64-38.4-192 38.4-64zM960 704h-44.8l-19.2-64h-192l-19.2 64H640v32h32l-32 32v128h64v-64h192v64h64v-128l-32-32h32V704z m-224 96h-64V768h64v32z m192 0h-64V768h64v32z" p-id="8635"></path></svg>