<?xml version="1.0" encoding="utf-8"?>
<!-- Generator: Adobe Illustrator 25.0.0, SVG Export Plug-In . SVG Version: 6.00 Build 0)  -->
<svg version="1.1" id="图层_1" xmlns="http://www.w3.org/2000/svg" xmlns:xlink="http://www.w3.org/1999/xlink" x="0px" y="0px"
	 viewBox="0 0 20 20" style="enable-background:new 0 0 20 20;" xml:space="preserve">
<path class="st0" d="M13.9,10.6c-1.7,0-3.1,1.4-3.1,3.1c0,1.7,1.4,3.1,3.1,3.1s3.1-1.4,3.1-3.1C17,12,15.6,10.6,13.9,10.6z
	 M15.4,14.5c-0.1,0.1-0.1,0.1-0.2,0.1h-0.9v0.8l0,0c0,0.1,0,0.2-0.1,0.2c-0.1,0.1-0.1,0.1-0.2,0.1c-0.1,0-0.2,0-0.2-0.1
	c-0.1-0.1-0.1-0.1-0.1-0.2v-0.8h-0.9l0,0c0,0-0.1,0-0.1,0c0,0-0.1,0-0.1-0.1c0,0-0.1-0.1-0.1-0.1c0,0,0-0.1,0-0.1c0,0,0-0.1,0-0.1
	c0,0,0-0.1,0.1-0.1c0,0,0.1,0,0.1-0.1c0,0,0.1,0,0.1,0h0.9v-0.6h-0.9l0,0c0,0-0.1,0-0.1,0c0,0-0.1,0-0.1-0.1c0,0-0.1-0.1-0.1-0.1
	c0,0,0-0.1,0-0.1c0,0,0-0.1,0-0.1c0,0,0-0.1,0.1-0.1c0,0,0.1,0,0.1-0.1c0,0,0.1,0,0.1,0h0.7l-0.6-0.6l0,0c0-0.1-0.1-0.1-0.1-0.2
	c0,0,0-0.1,0-0.1c0,0,0-0.1,0.1-0.1c0.1-0.1,0.1-0.1,0.2-0.1c0.1,0,0.2,0,0.2,0.1l0.8,0.8l0.8-0.8l0,0c0,0,0.1-0.1,0.2-0.1
	c0.1,0,0.1,0,0.2,0c0.1,0,0.1,0.1,0.1,0.1c0,0,0,0.1,0,0.2c0,0,0,0.1,0,0.1c0,0,0,0.1-0.1,0.1l-0.6,0.6h0.7l0,0
	c0.1,0,0.1,0.1,0.2,0.1c0,0.1,0.1,0.1,0.1,0.2c0,0.1,0,0.1-0.1,0.2c-0.1,0.1-0.1,0.1-0.2,0.1h-0.9V14h0.9l0,0c0.1,0,0.1,0,0.2,0.1
	c0,0,0.1,0.1,0.1,0.1c0,0,0,0.1,0,0.1C15.4,14.4,15.4,14.5,15.4,14.5z"/>
<path class="st0" d="M14.9,4.2h-2.1V3.3c0-0.2-0.1-0.3-0.3-0.3h-1.3c-0.2,0-0.3,0.1-0.3,0.3v0.9H7.7V3.3C7.7,3.1,7.6,3,7.4,3L6.2,3
	C5.9,3,5.8,3.1,5.8,3.3v0.9H3.7C3.3,4.2,3,4.5,3,4.9v11.4c0,0.2,0.1,0.4,0.2,0.5C3.3,16.9,3.5,17,3.7,17H12c-1.2-0.7-2-1.9-2-3.3
	c0-2.1,1.7-3.8,3.9-3.8c0.6,0,1.2,0.1,1.7,0.4v0V4.9C15.6,4.5,15.3,4.2,14.9,4.2z M9.2,10.8L9.2,10.8c0,0.3-0.2,0.5-0.5,0.5H5.1l0,0
	c-0.3,0-0.5-0.2-0.5-0.5v-0.5l0,0c0-0.3,0.2-0.4,0.5-0.4h3.7c0.3,0,0.5,0.2,0.5,0.5V10.8z M12.3,7.8L12.3,7.8c0,0.3-0.2,0.5-0.5,0.5
	H5.1l0,0C4.8,8.2,4.6,8,4.6,7.8V7.3l0,0c0-0.3,0.2-0.4,0.5-0.4h6.8c0.3,0,0.5,0.2,0.5,0.5V7.8z"/>
</svg>
