<svg width="16" height="16" viewBox="0 0 16 16" fill="none" xmlns="http://www.w3.org/2000/svg">
<g id="&#229;&#155;&#190;&#230;&#160;&#135;/&#232;&#143;&#156;&#229;&#141;&#149;/&#229;&#143;&#176;&#232;&#180;&#166;">
<g id="Vector">
<path d="M3.5 2.5H12.5V13.5H14V1H2V15H14V13.5H3.5V2.5Z" fill="#C9CDD4"/>
<path d="M8.5 9H11.5V10H8.5V9Z" fill="#C9CDD4"/>
<path d="M9.5 11H11.5V12H9.5V11Z" fill="#C9CDD4"/>
<path d="M8.5 9H11.5V10H8.5V9Z" fill="#C9CDD4"/>
<path d="M9.5 11H11.5V12H9.5V11Z" fill="#C9CDD4"/>
<path d="M8.5 4H11.5V5H8.5V4Z" fill="#C9CDD4"/>
<path d="M9.5 6H11.5V7H9.5V6Z" fill="#C9CDD4"/>
</g>
<path id="Rectangle 1545 (Stroke)" fill-rule="evenodd" clip-rule="evenodd" d="M7 5H5.5V6H7V5ZM4.5 4V7H8V4H4.5Z" fill="#C9CDD4"/>
<path id="Rectangle 1545 (Stroke)_2" fill-rule="evenodd" clip-rule="evenodd" d="M7 10H5.5V11H7V10ZM4.5 9V12H8V9H4.5Z" fill="#C9CDD4"/>
</g>
</svg>
