<?xml version="1.0" encoding="utf-8"?>
<!-- Generator: Adobe Illustrator 25.0.0, SVG Export Plug-In . SVG Version: 6.00 Build 0)  -->
<svg version="1.1" id="图层_1" xmlns="http://www.w3.org/2000/svg" xmlns:xlink="http://www.w3.org/1999/xlink" x="0px" y="0px"
	 viewBox="0 0 20 20" style="enable-background:new 0 0 20 20;" xml:space="preserve">
<path class="st0" d="M15.6,3H4.4C3.6,3,3,3.6,3,4.4v11.2C3,16.4,3.6,17,4.4,17h11.2c0.8,0,1.4-0.6,1.4-1.4V4.4C17,3.6,16.4,3,15.6,3
	z M7.9,13.5c0,0.4-0.3,0.7-0.7,0.7H6.5c-0.4,0-0.7-0.3-0.7-0.7V10c0-0.4,0.3-0.7,0.7-0.7h0.7c0.4,0,0.7,0.3,0.7,0.7V13.5z
	 M11.4,13.5c0,0.4-0.3,0.7-0.7,0.7H10c-0.4,0-0.7-0.3-0.7-0.7v-7c0-0.4,0.3-0.7,0.7-0.7h0.7c0.4,0,0.7,0.3,0.7,0.7V13.5z M14.9,13.5
	c0,0.4-0.3,0.7-0.7,0.7h-0.7c-0.4,0-0.7-0.3-0.7-0.7v-2.1c0-0.4,0.3-0.7,0.7-0.7h0.7c0.4,0,0.7,0.3,0.7,0.7V13.5z"/>
</svg>
