<?xml version="1.0" encoding="utf-8"?>
<!-- Generator: Adobe Illustrator 25.0.0, SVG Export Plug-In . SVG Version: 6.00 Build 0)  -->
<svg version="1.1" id="图层_1" xmlns="http://www.w3.org/2000/svg" xmlns:xlink="http://www.w3.org/1999/xlink" x="0px" y="0px"
	 viewBox="0 0 16 16" style="enable-background:new 0 0 16 16;" xml:space="preserve">
<style type="text/css">
	.st0{fill:#D8DBE1;}
</style>
<g>
	<path class="st0" d="M8.3,7.9V7.4H10c0.1,0,0.2-0.1,0.3-0.1v-1H8.8l0.8-1.4l-1-0.5L7.8,5.8L6.9,4.4l-1,0.5l0.9,1.4H5.3v1.1h1.9v0.5
		H5.3V9h1.9v1.6c0.3-1.1,1-2,2-2.7H8.3z"/>
	<path class="st0" d="M2.5,13.5V12h1V9h-1V7h1V4h-1V2.5h11v4.7C14,7.4,14.6,7.7,15,8V1H1v3H0v3h1v2H0v3h1v3h7
		c-0.3-0.4-0.6-1-0.8-1.5H2.5z M1,5h1.5v1H1V5z M1,10h1.5v1H1V10z"/>
	<path class="st0" d="M14.6,12.9c-0.3-0.3-0.6-0.4-1-0.4h-3.1c-0.4,0-0.7,0.1-1,0.4C9.2,13.2,9,13.6,9,14v1h0.8l0-0.8V14
		c0-0.2,0.1-0.3,0.2-0.5c0.1-0.1,0.3-0.2,0.5-0.2h3.1c0.2,0,0.3,0.1,0.5,0.2c0.1,0.1,0.2,0.3,0.2,0.5v0.2V15H15v-1
		C15,13.6,14.9,13.2,14.6,12.9z"/>
	<path class="st0" d="M12,8.4c-1,0-1.9,0.8-1.9,1.9c0,1,0.8,1.9,1.9,1.9s1.9-0.8,1.9-1.9C13.9,9.2,13,8.4,12,8.4z M12,11.3
		c-0.6,0-1-0.5-1-1s0.5-1,1-1s1,0.5,1,1S12.6,11.3,12,11.3z"/>
</g>
</svg>
