<?xml version="1.0" encoding="utf-8"?>
<!-- Generator: Adobe Illustrator 25.0.0, SVG Export Plug-In . SVG Version: 6.00 Build 0)  -->
<svg version="1.1" id="图层_1" xmlns="http://www.w3.org/2000/svg" xmlns:xlink="http://www.w3.org/1999/xlink" x="0px" y="0px"
	 viewBox="0 0 16 16" style="enable-background:new 0 0 16 16;" xml:space="preserve">
<style type="text/css">
	.st0{fill-rule:evenodd;clip-rule:evenodd;fill:#D8DBE1;}
</style>
<g>
	<path class="st0" d="M14.5,10V9.5h-2V10H11v6h5v-6H14.5z M15,15h-3v-4h3V15z"/>
	<polygon class="st0" points="12.8,14.1 13.4,14.4 14.5,12.6 13.8,12.6 14.2,11.9 13.5,11.5 12.5,13.4 13.2,13.4 	"/>
	<path class="st0" d="M4.7,12.9c-1-0.8-2-1.7-2.8-2.7l0-7.7c1.2,0.2,2.5,0.2,3.7-0.1c0.8-0.2,1.6-0.5,2.4-1c0.9,0.5,1.9,0.8,2.9,1
		c1,0.2,2,0.3,3.1,0.3v5.8h1.3V1.4l-0.8,0.1c-1.1,0.1-2.2,0.1-3.3-0.2c-1-0.1-2-0.5-2.8-1L8,0L7.6,0.4c-0.7,0.5-1.4,0.8-2.3,1
		c-1.3,0.3-2.6,0.3-3.8,0L0.7,1.2v9.4l0.1,0.1c0.9,1.1,1.9,2.2,3.1,3.1c1.2,0.9,2.4,1.6,3.8,2.1L8,16l0.3-0.1
		c0.6-0.2,1.2-0.5,1.7-0.8v-1.3c-0.6,0.4-1.3,0.7-2,1C6.8,14.3,5.7,13.7,4.7,12.9z"/>
	<path class="st0" d="M10.7,5L7.1,8.6L5.5,7.1c-0.3-0.3-0.7-0.3-1,0c-0.3,0.3-0.3,0.7,0,1l2.1,2.1c0.3,0.3,0.7,0.3,1,0L11.7,6
		c0.3-0.3,0.3-0.7,0-1C11.4,4.7,11,4.7,10.7,5z"/>
</g>
</svg>
