<?xml version="1.0" encoding="utf-8"?>
<!-- Generator: Adobe Illustrator 25.0.0, SVG Export Plug-In . SVG Version: 6.00 Build 0)  -->
<svg version="1.1" id="图层_1" xmlns="http://www.w3.org/2000/svg" xmlns:xlink="http://www.w3.org/1999/xlink" x="0px" y="0px"
	 viewBox="0 0 16 16" style="enable-background:new 0 0 16 16;" xml:space="preserve">
<style type="text/css">
	.st0{fill:#D8DBE1;}
</style>
<g>
	<path class="st0" d="M7,12c0-0.3,0-0.7,0.1-1H2.5V2.5h11v4.7C14,7.4,14.6,7.7,15,8V1H1v11.5h6C7,12.3,7,12.2,7,12z"/>
	<path class="st0" d="M3,13.5V15h5c-0.3-0.4-0.6-1-0.8-1.5H3z"/>
	<polygon class="st0" points="11.2,3.2 9.1,5.7 7.1,4.2 3.7,8.2 4.8,9.2 7.4,6.2 9.4,7.7 12.3,4.2 	"/>
	<path class="st0" d="M12,9c0,0-0.1,0-0.1,0c0,0-0.1,0-0.1,0.1c0,0-0.1,0.1-0.1,0.1c0,0,0,0.1,0,0.1v0.9c0,0.1,0,0.2,0.1,0.2
		c0.1,0.1,0.2,0.1,0.2,0.1s0.2,0,0.2-0.1c0.1-0.1,0.1-0.2,0.1-0.2V9.7c1.1,0.2,2,1.1,2,2.3c0,1.3-1.1,2.3-2.3,2.3S9.7,13.3,9.7,12v0
		c0-0.3,0.1-0.6,0.2-0.9c0.1-0.3,0.3-0.5,0.5-0.8c0,0,0.1-0.1,0.1-0.1c0,0,0-0.1,0-0.1c0,0,0-0.1,0-0.1c0,0,0-0.1-0.1-0.1
		c0,0-0.1-0.1-0.1-0.1c0,0-0.1,0-0.1,0s-0.1,0-0.1,0c0,0-0.1,0-0.1,0.1l0,0c0,0,0,0,0,0l0,0l0,0c-0.3,0.3-0.5,0.6-0.7,1
		C9,11.2,8.9,11.6,9,12c0,1.7,1.4,3,3,3s3-1.4,3-3S13.7,9,12,9z"/>
	<path class="st0" d="M11,11.4c0,0.1,0,0.2,0.1,0.2l0.6,0.6c0,0.1,0,0.2,0.1,0.3c0.1,0.1,0.1,0.2,0.2,0.3c0.1,0.1,0.2,0.1,0.4,0.1
		c0.1,0,0.2-0.1,0.3-0.2c0.1-0.1,0.1-0.2,0.2-0.3c0-0.1,0-0.2-0.1-0.4s-0.1-0.2-0.3-0.2c-0.1-0.1-0.2-0.1-0.3-0.1l-0.6-0.6
		c-0.1-0.1-0.2-0.1-0.2-0.1c-0.1,0-0.2,0-0.2,0.1C11.1,11.2,11,11.3,11,11.4z"/>
</g>
</svg>
