<?xml version="1.0" encoding="utf-8"?>
<!-- Generator: Adobe Illustrator 25.0.0, SVG Export Plug-In . SVG Version: 6.00 Build 0)  -->
<svg version="1.1" id="图层_1" xmlns="http://www.w3.org/2000/svg" xmlns:xlink="http://www.w3.org/1999/xlink" x="0px" y="0px"
	 viewBox="0 0 16 16" style="enable-background:new 0 0 16 16;" xml:space="preserve">
<style type="text/css">
	.st0{fill-rule:evenodd;clip-rule:evenodd;fill:#D8DBE1;}
</style>
<g>
	<path class="st0" d="M7,12c0-0.3,0-0.7,0.1-1H2.5V2.5h11v4.7C14,7.4,14.6,7.7,15,8V1H1v11.5h6C7,12.3,7,12.2,7,12z"/>
	<path class="st0" d="M3,13.5V15h5c-0.3-0.4-0.6-1-0.8-1.5H3z"/>
	<polygon class="st0" points="11.2,3.2 9.1,5.7 7.1,4.2 3.7,8.2 4.8,9.2 7.4,6.2 9.4,7.7 12.3,4.2 	"/>
	<circle class="st0" cx="12.1" cy="9.8" r="1"/>
	<circle class="st0" cx="14.4" cy="13" r="1"/>
	<path class="st0" d="M14,11.8c0.1,0,0.2,0,0.4,0c0.3,0,0.5,0.1,0.7,0.2c-0.1-1.1-0.8-2-1.7-2.4c0,0.1,0,0.1,0,0.2
		c0,0.3-0.1,0.6-0.3,0.8C13.6,10.8,13.9,11.3,14,11.8z"/>
	<path class="st0" d="M13.3,13.8c-0.3,0.3-0.8,0.4-1.2,0.4c-0.5,0-1-0.2-1.4-0.5c-0.2,0.3-0.5,0.5-0.8,0.6c0.5,0.6,1.3,0.9,2.2,0.9
		c0.8,0,1.6-0.3,2.2-0.9C13.9,14.3,13.6,14.1,13.3,13.8z"/>
	<path class="st0" d="M9.1,11.8c0.1-0.1,0.3-0.1,0.5-0.1c0.2,0,0.4,0,0.5,0.1c0.1-0.6,0.5-1,0.9-1.3c-0.2-0.2-0.3-0.5-0.3-0.8
		c0-0.1,0-0.1,0-0.2C9.9,10,9.3,10.8,9.1,11.8z"/>
	<path class="st0" d="M10.6,13c0-0.6-0.4-1-1-1c-0.6,0-1,0.4-1,1s0.4,1,1,1C10.1,14,10.6,13.6,10.6,13z"/>
</g>
</svg>
