<?xml version="1.0" encoding="utf-8"?>
<!-- Generator: Adobe Illustrator 25.0.0, SVG Export Plug-In . SVG Version: 6.00 Build 0)  -->
<svg version="1.1" id="图层_1" xmlns="http://www.w3.org/2000/svg" xmlns:xlink="http://www.w3.org/1999/xlink" x="0px" y="0px"
	 viewBox="0 0 16 16" style="enable-background:new 0 0 16 16;" xml:space="preserve">
<style type="text/css">
	.st0{fill:#D8DBE1;}
</style>
<g>
	<path class="st0" d="M1,1v11.5h6c0-0.2,0-0.3,0-0.5c0-0.3,0-0.7,0.1-1H2.5V2.5h11v4.7C14,7.4,14.6,7.7,15,8V1H1z"/>
	<path class="st0" d="M3,13.5V15h5c-0.3-0.4-0.6-1-0.8-1.5H3z"/>
	<polygon class="st0" points="12.3,4.2 11.2,3.2 9.1,5.7 7.1,4.2 3.7,8.2 4.8,9.2 7.4,6.2 9.4,7.7 	"/>
	<path class="st0" d="M14,9c-0.6,0-1,0.4-1,1c0,0.2,0.1,0.3,0.2,0.5l-1,1.7c0,0-0.1,0-0.1,0c-0.1,0-0.2,0-0.3,0.1l-1-1
		c0-0.1,0-0.1,0-0.2c0-0.4-0.3-0.8-0.8-0.8S9.2,10.6,9.2,11c0,0.1,0,0.2,0.1,0.3l-0.7,0.9c-0.2,0-0.4,0.2-0.4,0.5c0,0,0,0,0,0.1l0,0
		l0,0c0,0.2,0.2,0.4,0.5,0.4c0.3,0,0.5-0.2,0.5-0.5c0-0.1,0-0.1,0-0.2l0.6-0.8c0.1,0,0.1,0,0.2,0c0.1,0,0.2,0,0.3-0.1l1,1
		c0,0.1,0,0.1,0,0.2c0,0.4,0.3,0.8,0.8,0.8s0.8-0.3,0.8-0.8c0-0.2-0.1-0.3-0.1-0.4l1-1.6C13.7,11,13.9,11,14,11c0.6,0,1-0.4,1-1
		S14.6,9,14,9z"/>
</g>
</svg>
