<?xml version="1.0" encoding="utf-8"?>
<!-- Generator: Adobe Illustrator 25.0.0, SVG Export Plug-In . SVG Version: 6.00 Build 0)  -->
<svg version="1.1" id="图层_1" xmlns="http://www.w3.org/2000/svg" xmlns:xlink="http://www.w3.org/1999/xlink" x="0px" y="0px"
	 viewBox="0 0 16 16" style="enable-background:new 0 0 16 16;" xml:space="preserve">
<style type="text/css">
	.st0{fill:#D8DBE1;}
</style>
<g>
	<path class="st0" d="M2.5,12h1V9h-1V7h1V4h-1V2.5h11v6.1H15V1H1v3H0v3h1v2H0v3h1v3h8v-1.5H2.5V12z M1,5h1.5v1H1V5z M1,10h1.5v1H1
		V10z"/>
	<polygon class="st0" points="10.3,7 10.3,5.9 8.8,5.9 9.6,4.5 8.7,4 7.8,5.4 6.9,4 5.9,4.5 6.8,5.9 5.3,5.9 5.3,7 7.2,7 7.2,7.5 
		5.3,7.5 5.3,8.6 7.2,8.6 7.2,10.5 8.3,10.5 8.3,8.6 10.3,8.6 10.3,7.5 8.3,7.5 8.3,7 	"/>
	<path class="st0" d="M10.6,9.5v2.3c0,0.7,0,1.2-0.1,1.6c-0.1,0.3-0.3,0.7-0.7,1.1c0.3,0.2,0.5,0.4,0.8,0.7c0.2-0.3,0.4-0.5,0.6-0.8
		c0.1-0.3,0.2-0.6,0.3-1h2.7v0.4c0,0.3-0.2,0.4-0.5,0.4c-0.3,0-0.6,0-1,0c0.1,0.3,0.2,0.6,0.2,0.9c0.6,0,1.1,0,1.3,0
		c0.3,0,0.5-0.1,0.6-0.3c0.1-0.2,0.2-0.4,0.2-0.8V9.5H10.6z M14.1,12.5h-2.6c0-0.3,0-0.6,0-0.7h2.6V12.5z M14.1,11h-2.6v-0.7h2.6V11
		z"/>
</g>
</svg>
