<?xml version="1.0" encoding="utf-8"?>
<!-- Generator: Adobe Illustrator 25.0.0, SVG Export Plug-In . SVG Version: 6.00 Build 0)  -->
<svg version="1.1" id="图层_1" xmlns="http://www.w3.org/2000/svg" xmlns:xlink="http://www.w3.org/1999/xlink" x="0px" y="0px"
	 viewBox="0 0 16 16" style="enable-background:new 0 0 16 16;" xml:space="preserve">
<style type="text/css">
	.st0{fill-rule:evenodd;clip-rule:evenodd;fill:#D8DBE1;}
</style>
<g>
	<path class="st0" d="M7,12c0-0.3,0-0.7,0.1-1H2.5V2.5h11v4.7C14,7.4,14.6,7.7,15,8V1H1v11.5h6C7,12.3,7,12.2,7,12z"/>
	<path class="st0" d="M3,13.5V15h5c-0.3-0.4-0.6-1-0.8-1.5H3z"/>
	<polygon class="st0" points="7.1,4.2 3.7,8.2 4.8,9.2 7.4,6.2 9.4,7.7 12.3,4.2 11.2,3.2 9.1,5.7 	"/>
	<path class="st0" d="M9.4,12c0-1.4,1.2-2.6,2.6-2.6s2.6,1.2,2.6,2.6h0.8c0-1.9-1.5-3.4-3.4-3.4S8.6,10.1,8.6,12s1.5,3.4,3.4,3.4
		v-0.8C10.6,14.6,9.4,13.4,9.4,12z"/>
	<polygon class="st0" points="13.2,12.1 12.3,12.1 12.3,11.9 13.2,11.9 13.2,11.4 12.5,11.4 12.9,10.7 12.4,10.5 12,11.2 11.6,10.5 
		11.1,10.7 11.6,11.4 10.9,11.4 10.9,11.9 11.7,11.9 11.7,12.1 10.9,12.1 10.9,12.6 11.7,12.6 11.7,13.5 12.3,13.5 12.3,12.6 
		13.2,12.6 	"/>
	<polygon class="st0" points="14.2,13.4 13.8,13 12.8,14 12.6,14.2 12.8,14.4 13.8,15.4 14.2,15 13.7,14.5 15.4,14.5 15.4,13.9 
		13.7,13.9 	"/>
</g>
</svg>
