<?xml version="1.0" encoding="utf-8"?>
<!-- Generator: Adobe Illustrator 25.0.0, SVG Export Plug-In . SVG Version: 6.00 Build 0)  -->
<svg version="1.1" id="图层_1" xmlns="http://www.w3.org/2000/svg" xmlns:xlink="http://www.w3.org/1999/xlink" x="0px" y="0px"
	 viewBox="0 0 16 16" style="enable-background:new 0 0 16 16;" xml:space="preserve">
<style type="text/css">
	.st0{fill:#D8DBE1;}
</style>
<g>
	<path class="st0" d="M1,1v3H0v3h1v2H0v3h1v3h7.5v-1.5h-6V12h1V9h-1V7h1V4h-1V2.5h11v6.1H15V1H1z M2.5,11H1v-1h1.5V11z M2.5,6H1V5
		h1.5V6z"/>
	<polygon class="st0" points="8.3,10.5 8.3,8.6 10.3,8.6 10.3,7.5 8.3,7.5 8.3,7 10.3,7 10.3,5.9 8.8,5.9 9.6,4.5 8.7,4 7.8,5.4 
		6.9,4 5.9,4.5 6.8,5.9 5.3,5.9 5.3,7 7.2,7 7.2,7.5 5.3,7.5 5.3,8.6 7.2,8.6 7.2,10.5 	"/>
	<path class="st0" d="M14.6,9.4h-3v3.4c-0.3-0.3-0.6-0.5-0.8-0.7l-0.2,0.2v-0.7h0.8v-0.7h-0.8v-0.8c0.3,0,0.5-0.1,0.8-0.1l-0.2-0.8
		C10.4,9.4,9.7,9.5,9,9.5c0,0.2,0.1,0.5,0.1,0.8c0.2,0,0.5,0,0.7-0.1v0.7H9v0.7h0.7c-0.2,0.6-0.5,1-0.7,1.4c0.1,0.3,0.2,0.7,0.3,1
		c0.2-0.4,0.4-0.8,0.6-1.3V15h0.8v-2.2c0.1,0.2,0.3,0.3,0.5,0.5l0.5-0.5v1.4h-0.5V15H15v-0.8h-0.4V9.4z M13.8,14.2h-1.4v-1h1.4V14.2
		z M13.8,12.6h-1.4v-0.8h1.4V12.6z M13.8,11h-1.4v-0.8h1.4V11z"/>
</g>
</svg>
