<?xml version="1.0" encoding="utf-8"?>
<!-- Generator: Adobe Illustrator 25.0.0, SVG Export Plug-In . SVG Version: 6.00 Build 0)  -->
<svg version="1.1" id="图层_1" xmlns="http://www.w3.org/2000/svg" xmlns:xlink="http://www.w3.org/1999/xlink" x="0px" y="0px"
	 viewBox="0 0 16 16" style="enable-background:new 0 0 16 16;" xml:space="preserve">
<style type="text/css">
	.st0{fill:#D8DBE1;}
</style>
<g>
	<polygon class="st0" points="3,13.5 3,4.1 8.5,2 8.5,11.2 10,9.9 10,4.8 13,7.2 13,9 14.5,9 14.5,6.4 10,2.9 10,0 1.5,2.9 
		1.5,13.5 0.5,13.5 0.5,15 8.1,15 6.9,13.5 	"/>
	<rect x="3.5" y="6" class="st0" width="4" height="1.5"/>
	<rect x="3.5" y="9" class="st0" width="4" height="1.5"/>
	<rect x="9" y="14" class="st0" width="6" height="1"/>
	<polygon class="st0" points="12,10 12,11 13.3,11 12.5,11.8 11,10.3 7.7,13.1 8.3,13.9 11,11.7 12.5,13.2 14,11.7 14,13 15,13 
		15,10 	"/>
</g>
</svg>
