<?xml version="1.0" encoding="utf-8"?>
<!-- Generator: Adobe Illustrator 25.0.0, SVG Export Plug-In . SVG Version: 6.00 Build 0)  -->
<svg version="1.1" id="图层_1" xmlns="http://www.w3.org/2000/svg" xmlns:xlink="http://www.w3.org/1999/xlink" x="0px" y="0px"
	 viewBox="0 0 18 18" style="enable-background:new 0 0 18 18;" xml:space="preserve">
<style type="text/css">
	.st0{fill:#D8DBE1;}
</style>
<g>
	<path class="st0" d="M3,9c0,3.3,2.7,6,6,6s6-2.7,6-6s-2.7-6-6-6S3,5.7,3,9z M9,4.5c2.5,0,4.5,2,4.5,4.5s-2,4.5-4.5,4.5
		s-4.5-2-4.5-4.5S6.5,4.5,9,4.5z"/>
	<polygon class="st0" points="8.5,12 9.5,12 9.5,10.2 11.2,10.2 11.2,9.2 9.5,9.2 9.5,8.8 11.2,8.8 11.2,7.8 9.9,7.8 10.6,6.5 
		9.8,6 9,7.3 8.2,6 7.3,6.5 8.1,7.8 6.8,7.8 6.8,8.8 8.5,8.8 8.5,9.2 6.8,9.2 6.8,10.2 8.5,10.2 	"/>
	<path class="st0" d="M15,3c-1.1-1.1-2.4-1.9-3.9-2.2c-0.3-0.1-0.5,0.1-0.6,0.4c-0.1,0.3,0.1,0.5,0.4,0.6c1.3,0.3,2.5,1,3.4,2
		C15.7,5.1,16.5,7,16.5,9c0,1-0.2,1.9-0.5,2.8c-0.1,0.3,0,0.5,0.3,0.7c0.1,0,0.1,0,0.2,0c0.2,0,0.4-0.1,0.5-0.3
		c0.4-1,0.6-2.1,0.6-3.2C17.5,6.7,16.6,4.6,15,3z"/>
	<path class="st0" d="M14.7,13.9c-0.9,1-2,1.8-3.3,2.2c-1.9,0.6-3.9,0.5-5.7-0.4c-0.9-0.4-1.6-1-2.3-1.7c-0.2-0.2-0.5-0.2-0.7,0
		c-0.2,0.2-0.2,0.5,0,0.7c0.7,0.8,1.6,1.5,2.6,2c1.2,0.6,2.5,0.9,3.7,0.9c0.9,0,1.8-0.2,2.7-0.5c1.4-0.5,2.7-1.4,3.7-2.5
		c0.2-0.2,0.2-0.5-0.1-0.7C15.2,13.7,14.9,13.7,14.7,13.9z"/>
	<path class="st0" d="M2,7.2c0.5-1.9,1.8-3.5,3.5-4.5c0.8-0.5,1.8-0.8,2.7-0.9c0.3,0,0.5-0.3,0.4-0.6c0-0.3-0.3-0.5-0.6-0.4
		C6.9,0.8,5.9,1.2,5,1.7c-2,1.1-3.4,3-4,5.1c-0.4,1.5-0.4,3,0,4.5c0.1,0.2,0.3,0.4,0.5,0.4c0,0,0.1,0,0.1,0c0.3-0.1,0.4-0.3,0.3-0.6
		C1.6,9.8,1.6,8.5,2,7.2z"/>
</g>
</svg>
