<?xml version="1.0" encoding="utf-8"?>
<!-- Generator: Adobe Illustrator 25.0.0, SVG Export Plug-In . SVG Version: 6.00 Build 0)  -->
<svg version="1.1" id="图层_1" xmlns="http://www.w3.org/2000/svg" xmlns:xlink="http://www.w3.org/1999/xlink" x="0px" y="0px"
	 viewBox="0 0 16 16" style="enable-background:new 0 0 16 16;" xml:space="preserve">
<style type="text/css">
	.st0{fill:#D8DBE1;}
</style>
<g>
	<path class="st0" d="M1,1v3H0v3h1v2H0v3h1v3h7.5v-1.5h-6V12h1V9h-1V7h1V4h-1V2.5h11v6.1H15V1H1z M2.5,11H1v-1h1.5V11z M2.5,6H1V5
		h1.5V6z"/>
	<polygon class="st0" points="8.3,10.5 8.3,8.6 10.3,8.6 10.3,7.5 8.3,7.5 8.3,7 10.3,7 10.3,5.9 8.8,5.9 9.6,4.5 8.7,4 7.8,5.4 
		6.9,4 5.9,4.5 6.8,5.9 5.3,5.9 5.3,7 7.2,7 7.2,7.5 5.3,7.5 5.3,8.6 7.2,8.6 7.2,10.5 	"/>
	<path class="st0" d="M11.5,9.1c0,0.2-0.1,0.3-0.1,0.5H9.6V13h2.3l-0.4,0.2c0.3,0.4,0.5,0.6,0.6,0.9l0.7-0.5L12.3,13h2.1V9.7h-2.1
		l0.2-0.4L11.5,9.1z M13.6,12.4h-3.2V12h3.2V12.4z M13.6,11.5h-3.2v-0.3h3.2V11.5z M13.6,10.3v0.3h-3.2v-0.3H13.6z"/>
	<path class="st0" d="M13.6,13.4c0.3,0.4,0.5,0.9,0.7,1.3l0.7-0.4c-0.1-0.3-0.4-0.7-0.7-1.3L13.6,13.4z"/>
	<path class="st0" d="M9,14.5l0.7,0.3c0.1-0.3,0.3-0.7,0.6-1.4l-0.8-0.3C9.4,13.6,9.2,14.1,9,14.5z"/>
	<path class="st0" d="M12.8,14.2c-0.1,0.1-0.2,0.1-0.5,0.1h-0.7c-0.3,0-0.4-0.1-0.4-0.3v-0.8h-0.8v1c0,0.5,0.3,0.8,0.9,0.8h1.4
		c0.3,0,0.5-0.1,0.6-0.2c0.2-0.1,0.3-0.4,0.5-0.9c-0.2-0.1-0.5-0.2-0.8-0.4C13,13.9,12.9,14.1,12.8,14.2z"/>
</g>
</svg>
