<?xml version="1.0" encoding="utf-8"?>
<!-- Generator: Adobe Illustrator 25.0.0, SVG Export Plug-In . SVG Version: 6.00 Build 0)  -->
<svg version="1.1" id="图层_1" xmlns="http://www.w3.org/2000/svg" xmlns:xlink="http://www.w3.org/1999/xlink" x="0px" y="0px"
	 viewBox="0 0 16 16" style="enable-background:new 0 0 16 16;" xml:space="preserve">
<style type="text/css">
	.st0{fill-rule:evenodd;clip-rule:evenodd;fill:#D8DBE1;}
</style>
<g>
	<path class="st0" d="M1,1v11.5h6c0-0.2,0-0.3,0-0.5c0-0.3,0-0.7,0.1-1H2.5V2.5h11v4.7C14,7.4,14.6,7.7,15,8V1H1z"/>
	<path class="st0" d="M3,13.5V15h5c-0.3-0.4-0.6-1-0.8-1.5H3z"/>
	<polygon class="st0" points="12.3,4.2 11.2,3.2 9.1,5.7 7.1,4.2 3.7,8.2 4.8,9.2 7.4,6.2 9.4,7.7 	"/>
	<path class="st0" d="M12,9c-1.7,0-3,1.3-3,3s1.3,3,3,3s3-1.3,3-3S13.7,9,12,9z M13.5,11.8h-1.2v0.3h1.2v0.6h-1.2v1.2h-0.7v-1.2
		h-1.1v-0.6h1.1v-0.3h-1.1v-0.6h0.9l-0.5-0.8l0.6-0.3l0.5,0.9l0.5-0.9l0.6,0.3l-0.5,0.8h0.9V11.8z"/>
</g>
</svg>
